<svg xmlns="http://www.w3.org/2000/svg" xmlns:xlink="http://www.w3.org/1999/xlink" preserveAspectRatio="xMidYMid meet" width="850" height="500" viewBox="0 0 850 500" style="width:100%;height:100%"><defs><animate repeatCount="indefinite" dur="2.72s" begin="0s" xlink:href="#_R_G_L_0_G_D_0_P_0" fill="freeze" attributeName="d" attributeType="XML" from="M-170.5 25.5 C-170.5,25.5 -149,26 -145,26 C-141,26 -128.5,74.5 -116.5,74.5 C-104.5,74.5 -96.5,-23.5 -78,-23.5 C-59.5,-23.5 -61.5,42.5 -45.5,42.5 C-29.5,42.5 -29,-67.5 -9,-67.5 C11,-67.5 5,118.5 26.5,118.5 C48,118.5 45.5,-21.5 64.5,-21.5 C83.5,-21.5 82,74.5 99,74.5 C116,74.5 117.5,27.5 129.5,27.5 C141.5,27.5 162,27.5 162,27.5 " to="M-170.5 25.5 C-170.5,25.5 -149,26 -145,26 C-141,26 -128.5,74.5 -116.5,74.5 C-104.5,74.5 -96.5,-23.5 -78,-23.5 C-59.5,-23.5 -61.5,121 -45.5,121 C-29.5,121 -29,-67.5 -9,-67.5 C11,-67.5 5,118.5 26.5,118.5 C48,118.5 45.5,-21.5 64.5,-21.5 C83.5,-21.5 82,74.5 99,74.5 C116,74.5 117.5,27.5 129.5,27.5 C141.5,27.5 162,27.5 162,27.5 " keyTimes="0;0.1470588;0.2941176;0.4264706;0.5882353;0.7352941;0.8823529;1" values="M-170.5 25.5 C-170.5,25.5 -149,26 -145,26 C-141,26 -128.5,74.5 -116.5,74.5 C-104.5,74.5 -96.5,-23.5 -78,-23.5 C-59.5,-23.5 -61.5,42.5 -45.5,42.5 C-29.5,42.5 -29,-67.5 -9,-67.5 C11,-67.5 5,118.5 26.5,118.5 C48,118.5 45.5,-21.5 64.5,-21.5 C83.5,-21.5 82,74.5 99,74.5 C116,74.5 117.5,27.5 129.5,27.5 C141.5,27.5 162,27.5 162,27.5 ;M-170.5 25.5 C-170.5,25.5 -149,26 -145,26 C-141,26 -128.5,-29.5 -116.5,-29.5 C-93,-29.5 -96.5,36.5 -78,36.5 C-59.5,36.5 -61.5,16 -45.5,16 C-26.5,16 -30.5,98 -9,98 C14,98 5,-9 26.5,-9 C60.5,-9 45.5,41.5 64.5,41.5 C83.5,41.5 82,-14 99,-14 C116,-14 117.5,27.5 129.5,27.5 C141.5,27.5 162,27.5 162,27.5 ;M-170.5 25.5 C-170.5,25.5 -149,26 -145,26 C-141,26 -128.5,54.5 -116.5,54.5 C-95,54.5 -93.5,-79 -75,-79 C-47.5,-79 -61.5,92 -45.5,92 C-29.5,92 -29,52 -9,52 C11,52 5.5,103 27,103 C48.5,103 45.5,-18.5 64.5,-18.5 C83.5,-18.5 82,88.5 99,88.5 C116,88.5 117.5,27.5 129.5,27.5 C141.5,27.5 162,27.5 162,27.5 ;M-170.5 25.5 C-170.5,25.5 -149,26 -145,26 C-141,26 -129,-9 -117,-9 C-93.5,-9 -96.5,95 -78,95 C-59.5,95 -60,-84 -44,-84 C-28,-84 -29,108.5 -9,108.5 C11,108.5 4.5,35 26,35 C47.5,35 45.5,112 64.5,112 C83.5,112 52.5,-15.5 99,-15.5 C122.5,-15.5 117.5,27.5 129.5,27.5 C141.5,27.5 162,27.5 162,27.5 ;M-170.5 25.5 C-170.5,25.5 -149,26 -145,26 C-141,26 -130.5,63.5 -116.5,63.5 C-81.5,63.5 -107,-52.5 -78,-52.5 C-59.5,-52.5 -58.5,58.5 -42.5,58.5 C-15,58.5 -29,21 -9,21 C11,21 5,116.5 26.5,116.5 C48,116.5 45.5,-68 64.5,-68 C83.5,-68 80,75 99,75 C118,75 117.5,27.5 129.5,27.5 C141.5,27.5 162,27.5 162,27.5 ;M-170.5 25.5 C-170.5,25.5 -149,26 -145,26 C-141,26 -130.5,-29 -116.5,-29 C-81.5,-29 -107,109.5 -78,109.5 C-59.5,109.5 -59,4 -43,4 C-15.5,4 -29,73.5 -9,73.5 C11,73.5 4.5,-92.5 26,-92.5 C47.5,-92.5 45.5,89 64.5,89 C83.5,89 80,-19.5 99,-19.5 C118,-19.5 117.5,27.5 129.5,27.5 C141.5,27.5 162,27.5 162,27.5 ;M-170.5 25.5 C-170.5,25.5 -149,26 -145,26 C-141,26 -130,91.5 -118,91.5 C-106,91.5 -96.5,125.5 -78,125.5 C-59.5,125.5 -62,45 -46,45 C-30,45 -29,1.5 -9,1.5 C11,1.5 4.5,42.5 26,42.5 C47.5,42.5 45,90 64,90 C83,90 84.94,73.94 101.94,73.94 C118.94,73.94 117.5,27.5 129.5,27.5 C141.5,27.5 162,27.5 162,27.5 ;M-170.5 25.5 C-170.5,25.5 -149,26 -145,26 C-141,26 -128.5,74.5 -116.5,74.5 C-104.5,74.5 -96.5,-23.5 -78,-23.5 C-59.5,-23.5 -61.5,121 -45.5,121 C-29.5,121 -29,-67.5 -9,-67.5 C11,-67.5 5,118.5 26.5,118.5 C48,118.5 45.5,-21.5 64.5,-21.5 C83.5,-21.5 82,74.5 99,74.5 C116,74.5 117.5,27.5 129.5,27.5 C141.5,27.5 162,27.5 162,27.5 " keySplines="0.333 0 0.667 1;0.333 0 0.667 1;0.333 0 0.667 1;0.333 0 0.667 1;0.333 0 0.667 1;0.333 0 0.667 1;0.333 0 0.667 1" calcMode="spline"/><animate attributeType="XML" attributeName="opacity" dur="3s" from="0" to="1" xlink:href="#time_group"/></defs><g id="_R_G"><g id="_R_G_L_1_G" transform=" translate(423, 251) scale(2.1167599999999998, 2.1167599999999998) translate(-260, -300)"><path id="_R_G_L_1_G_D_0_P_0" fill="#1186ef" fill-opacity="1" fill-rule="nonzero" d=" M337.19 295.73 C337.19,295.73 349.94,296.2 349.94,296.2 C356.01,296.2 360.95,301.13 360.95,307.21 C360.95,307.4 360.95,307.58 360.94,307.77 C360.92,308.14 360.88,308.49 360.83,308.84 C360.83,308.89 360.82,308.93 360.81,308.97 C356.08,360.65 312.63,401.14 259.72,401.14 C223.37,401.14 191.51,382.04 173.57,353.34 C165.28,340.09 151.55,331.2 136.02,329.42 C136.02,329.42 68.25,321.71 68.25,321.71 C68.25,321.71 159.05,311.2 159.05,311.2 C170.47,309.88 181.17,316.63 185.2,327.39 C196.51,357.58 225.64,379.13 259.72,379.13 C301.08,379.13 335.15,347.42 338.92,307.03 C338.92,306.9 338.93,306.76 338.93,306.64 C338.91,304.61 335.95,302.88 333.87,302.88 "/><path id="_R_G_L_1_G_D_1_P_0" fill="#1186ef" fill-opacity="1" fill-rule="nonzero" d=" M176.3 304.18 C176.3,304.18 169.51,303.94 169.51,303.94 C162.33,303.13 158.49,298.01 158.49,291.92 C158.49,291.72 158.49,291.54 158.5,291.36 C158.52,291.16 158.53,290.98 158.55,290.79 C158.56,290.6 158.59,290.41 158.63,290.23 C158.63,290.2 158.64,290.15 158.64,290.11 C163.39,238.45 206.83,198 259.72,198 C296.07,198 327.94,217.1 345.88,245.8 C354.17,259.05 367.9,267.94 383.43,269.71 C383.43,269.71 451.19,277.43 451.19,277.43 C451.19,277.43 360.38,287.93 360.38,287.93 C348.97,289.25 338.27,282.5 334.25,271.74 C322.94,241.55 293.8,220.01 259.72,220.01 C218.37,220.01 184.3,251.7 180.52,292.09 C180.32,294.29 182.07,296.2 184.28,296.2 C184.28,296.2 185.56,296.2 185.56,296.2 "/></g><g id="_R_G_L_0_G" transform=" translate(431, 222) scale(1.09457, 1.09457) translate(0, 0)"><path id="_R_G_L_0_G_D_0_P_0" stroke="#1186ef" stroke-linecap="round" stroke-linejoin="round" fill="none" stroke-width="18" stroke-opacity="1" d=" M-170.5 25.5 C-170.5,25.5 -149,26 -145,26 C-141,26 -128.5,74.5 -116.5,74.5 C-104.5,74.5 -96.5,-23.5 -78,-23.5 C-59.5,-23.5 -61.5,42.5 -45.5,42.5 C-29.5,42.5 -29,-67.5 -9,-67.5 C11,-67.5 5,118.5 26.5,118.5 C48,118.5 45.5,-21.5 64.5,-21.5 C83.5,-21.5 82,74.5 99,74.5 C116,74.5 117.5,27.5 129.5,27.5 C141.5,27.5 162,27.5 162,27.5 "/></g></g><g id="time_group"/></svg>